# xmcd
#
# Track frame offsets:
#  215
#  14153
#  36493
#  47456
#  58683
#  74670
#  96535
#  113142
#  130611
#  144304
#  162289
#  176979
#  192698
#  208752
#  227099
#  235539
#  252410
#  270680
#  288013
#  304903
#  327361
#
# Disc length: 4672 seconds
#
# Revision: 0
# Processed by: cddbd v1.5.1PL2 Copyright (c) Steve Scherf et al.
# Submitted via: Collectorz.com_Music_Collector 6.9
#
DISCID=45123e15
DTITLE=Caetano Veloso - Notas de Romantismo
DYEAR=2004
DGENRE=Brasileira
TTITLE0=O Leãozinho
TTITLE1=Você é Linda
TTITLE2=Coração Vagabundo (com Gal Costa)
TTITLE3=Menino do Rio
TTITLE4=Beleza Pura
TTITLE5=Debaixo dos Caracóis dos Seus Cabelos
TTITLE6=Tropicália
TTITLE7=Outras Palavras
TTITLE8=Sonhos
TTITLE9=Lua de S. Jorge
TTITLE10=Qualquer Coisa
TTITLE11=Lua e Estrela
TTITLE12=Luz do Sol
TTITLE13=Não Identificado
TTITLE14=Remelexo
TTITLE15=Meia Lua Inteira
TTITLE16=Meu Bem Meu Mal
TTITLE17=Eu Sei Que Vou Te Amar
TTITLE18=Você É Minha
TTITLE19=Mel
TTITLE20=Tempo de Estio
EXTD=
EXTT0=
EXTT1=
EXTT2=
EXTT3=
EXTT4=
EXTT5=
EXTT6=
EXTT7=
EXTT8=
EXTT9=
EXTT10=
EXTT11=
EXTT12=
EXTT13=
EXTT14=
EXTT15=
EXTT16=
EXTT17=
EXTT18=
EXTT19=
EXTT20=
PLAYORDER=
